<?xml version="1.0" encoding="utf-8"?>
<!-- Generator: Adobe Illustrator 25.2.1, SVG Export Plug-In . SVG Version: 6.00 Build 0)  -->
<svg version="1.1" id="Layer_1" xmlns="http://www.w3.org/2000/svg" xmlns:xlink="http://www.w3.org/1999/xlink" x="0px" y="0px"
	 viewBox="0 0 257.71 69.93" style="enable-background:new 0 0 257.71 69.93;" xml:space="preserve">
<style type="text/css">
	.st0{fill:#FFFFFF;}
</style>
<path class="st0" d="M0,17.57c0-0.62,0.41-1.18,0.97-1.18c4.78-0.01,7.18-0.02,11.96-0.03c6.26-0.01,11.38,5.66,11.35,12.54
	c-0.03,7.05-5.18,13.21-11.36,13.78c-2.53,0.24-3.8,0.36-6.33,0.6c-0.01,5.67-0.01,8.51-0.02,14.18c0,0.6-0.46,1.22-0.96,1.29
	c-1.86,0.29-2.79,0.43-4.64,0.73C0.4,59.6,0,59.11,0,58.49C0,44.85,0,31.21,0,17.57z M12.48,35.52c2.84-0.19,5.24-2.96,5.25-6.39
	c0.01-3.2-2.37-5.57-5.22-5.5c-2.36,0.06-3.54,0.1-5.9,0.16C6.6,28.65,6.6,31.08,6.59,35.93C8.94,35.76,10.12,35.68,12.48,35.52z"/>
<path class="st0" d="M22,54.93C27.13,42,32.45,29.15,37.96,16.37c0.15-0.33,0.41-0.6,0.87-0.6c0.2,0,0.31,0,0.51,0
	c0.51,0,0.71,0.27,0.86,0.6c5.03,11.73,10.19,23.4,15.48,35.01c0.3,0.65-0.11,1.36-0.87,1.43c-1.77,0.16-2.66,0.24-4.43,0.4
	c-0.76,0.07-1.12-0.21-1.47-0.92c-0.98-2.19-1.48-3.3-2.46-5.52c-6.08,0.5-9.12,0.77-15.2,1.36c-1.01,2.5-1.51,3.76-2.51,6.3
	c-0.21,0.58-0.66,1.2-1.48,1.3c-1.76,0.22-2.65,0.33-4.41,0.56C22.09,56.41,21.69,55.72,22,54.93z M43.99,41.03
	c-2.01-4.58-3.01-6.9-5.02-11.61c-0.06,0-0.09,0-0.15,0.01c-2.02,4.87-3.03,7.33-5.04,12.34C37.86,41.46,39.9,41.31,43.99,41.03z"/>
<path class="st0" d="M59.13,16.7c0-0.52,0.46-0.93,0.97-0.93c0.51,0,0.76,0,1.27,0c6.93,7.39,13.92,14.69,21.08,21.86
	c0.02,0,0.03,0,0.05,0c0.03-6.81,0.06-13.62,0.09-20.42c0-0.5,0.41-0.94,0.97-0.94c1.87,0,2.81,0,4.68,0c0.51,0,0.97,0.44,0.96,0.93
	c-0.04,11-0.08,21.99-0.13,32.99c0,0.49-0.46,0.9-0.97,0.92c-0.49,0.02-0.74,0.03-1.23,0.06c-7.15-7.29-14.22-14.64-21.2-22.09
	c-0.02,0-0.03,0-0.05,0c-0.04,7.3-0.08,14.6-0.12,21.91c0,0.51-0.41,1-0.97,1.04c-1.86,0.14-2.78,0.21-4.64,0.36
	c-0.51,0.04-0.97-0.39-0.96-0.9C59,39.89,59.06,28.29,59.13,16.7z"/>
<path class="st0" d="M97.09,17.18c0-0.49,0.41-0.92,0.97-0.92c1.87,0,2.81,0,4.68,0c0.51,0,0.97,0.43,0.96,0.92
	c-0.02,9.04-0.04,18.08-0.06,27.12c5.21-0.1,7.81-0.13,13.02-0.16c0.56,0,0.97,0.43,0.97,0.91c0,1.58,0,2.36,0,3.94
	c0,0.48-0.41,0.92-0.97,0.92c-7.48,0.05-11.23,0.12-18.71,0.35c-0.56,0.02-0.97-0.41-0.97-0.89C97.03,38.63,97.06,27.91,97.09,17.18
	z"/>
<path class="st0" d="M121.42,17.17c0-0.48,0.46-0.91,0.97-0.91c1.89,0,2.84,0,4.73,0c0.51,0,0.97,0.43,0.97,0.91
	c0.01,10.61,0.02,21.22,0.03,31.83c0,0.48-0.46,0.91-0.97,0.91c-1.9-0.01-2.85-0.02-4.75-0.02c-0.51,0-0.97-0.43-0.97-0.91
	C121.42,38.37,121.42,27.77,121.42,17.17z"/>
<path class="st0" d="M135.98,16.64c0-0.48,0.46-0.87,0.97-0.87c0.51,0,0.76,0,1.27,0c7.15,7.22,14.24,14.49,21.27,21.83
	c0.02,0,0.03,0,0.05,0c-0.03-6.8-0.06-13.6-0.09-20.4c0-0.49,0.4-0.94,0.96-0.94c1.87,0,2.81,0,4.68,0c0.51,0,0.97,0.45,0.97,0.95
	c0.05,11.2,0.11,22.39,0.16,33.59c0,0.5-0.46,0.87-0.96,0.84c-0.49-0.03-0.74-0.04-1.23-0.07c-7.04-7.81-14.18-15.51-21.41-23.15
	c-0.02,0-0.03,0-0.05,0c0.02,6.95,0.04,13.89,0.05,20.84c0,0.48-0.41,0.91-0.97,0.89c-1.86-0.05-2.79-0.07-4.65-0.11
	c-0.51-0.01-0.97-0.45-0.97-0.94C136.02,38.29,136,27.46,135.98,16.64z"/>
<path class="st0" d="M189.66,15.77c4.49,0.09,8.97,1.85,12.44,5.03c0.41,0.44,0.46,1.09,0.06,1.52c-1.25,1.38-1.88,2.07-3.14,3.43
	c-0.4,0.42-0.86,0.4-1.32-0.04c-2.2-2.09-4.9-3.19-7.7-3.23c-6.36-0.1-11.37,5.3-11.34,11.68c0.03,6.34,5.11,12.01,11.52,12.49
	c2.85,0.22,5.03-0.51,6.05-0.85c-0.01-1.81-0.01-2.72-0.02-4.53c-1.63-0.11-2.44-0.16-4.07-0.26c-0.56-0.04-0.97-0.48-0.97-1.01
	c-0.01-1.66-0.01-2.49-0.02-4.15c0-0.58,0.4-0.98,0.96-0.95c3.91,0.19,5.86,0.29,9.77,0.5c0.51,0.03,0.92,0.54,0.92,1.08
	c0.03,5.55,0.04,8.33,0.07,13.88c0,0.43-0.2,0.69-0.4,0.83c0,0-5.32,2.8-12.6,2.26c-9.89-0.75-18.32-10.24-18.39-19.49
	C171.43,24.92,179.81,15.58,189.66,15.77z"/>
<path class="st0" d="M237.43,36.19c-0.37,0.27-0.78,0.46-1.21,0.59c0.01,0.26,0.03,0.52,0.03,0.79c0.02,7.59-5.24,13.14-11.63,12.42
	c-6.39-0.73-11.64-7-11.67-14.04c-0.02-5.58,3.33-10.41,7.85-12.04c-0.01-0.19-0.03-0.38-0.03-0.57V16.1
	c-8.57,1.89-14.49,11.33-14.43,19.44c0.07,9.6,7.74,20.83,18.3,21.97c10.84,1.17,18.26-9.45,18.19-19.42
	c-0.01-1.8-0.25-3.64-0.68-5.45L237.43,36.19z"/>
<path class="st0" d="M202.36,60.83c-10.3-1.77-22.68-3.32-36.5-4.39c-13.81-1.08-29.05-1.66-45.03-1.69
	c-15.98,0.03-31.22,0.62-45.03,1.69c-13.81,1.07-26.2,2.63-36.5,4.39c-10.3,1.76-18.52,3.73-24.07,5.42
	c-5.56,1.68-8.46,3.08-8.26,3.53c0.05,0.11,0.29,0.16,0.71,0.16c1.24,0,4.09-0.45,8.35-1.09c5.7-0.87,13.94-2.07,24.19-3.19
	c10.25-1.13,22.49-2.16,36.14-2.87c13.64-0.71,28.67-1.1,44.46-1.13c15.79,0.03,30.82,0.42,44.46,1.13
	c13.64,0.71,25.89,1.74,36.14,2.87c10.25,1.12,18.49,2.33,24.19,3.19c4.27,0.64,7.11,1.09,8.35,1.09c0.42,0,0.66-0.05,0.71-0.16
	c0.2-0.45-2.7-1.85-8.26-3.53C220.87,64.55,212.66,62.59,202.36,60.83z"/>
<path class="st0" d="M253.47,0c2.34,0,4.24,1.9,4.24,4.24v19.08c0,2.34-1.9,4.24-4.24,4.24h-9.54l-8.28,6.21
	c-0.14,0.11-0.31,0.15-0.46,0.15c-0.41,0-0.8-0.33-0.8-0.8v-5.57h-6.36c-2.34,0-4.24-1.9-4.24-4.24V4.24c0-2.34,1.9-4.24,4.24-4.24
	H253.47"/>
</svg>
